# xmcd
#
# Track frame offsets: 
#        150
#        13908
#        27668
#        42283
#        61143
#        76026
#        90043
#        106787
#        135972
#        151603
#        164521
#        180969
#        195421
#        210516
#        223631
#        236704
#        251230
#        265865
#
# Disc length: 3747 seconds
#
# Revision: 0
# Processed by: cddbd v1.5.2PL0 Copyright (c) Steve Scherf et al.
# Submitted via: ExactAudioCopyFreeDBPlugin 1.0
#
DISCID=db0ea112
DTITLE=ยุพิน แพรทอง - [KTD-1113] แม่แบบเพลงลูกทุ่ง ยุพิน แพรทอง ชุด จะ
DTITLE=รักใครดี
DYEAR=2011
DGENRE=Country
TTITLE0=จะรักใครดี
TTITLE1=ลูกสาวกำนัน
TTITLE2=ฝนซาฟ้าใส
TTITLE3=เจ้าน้ำตา
TTITLE4=ไม่อยากเห็นหน้าผู้ชาย
TTITLE5=หนี้กรรม (ยุพิน-สุมิตร)
TTITLE6=ธรณีชีวิต (ยุพิน-ชาตรี)
TTITLE7=มนต์เสียงเพลง (ยุพิน-ชาตรี)
TTITLE8=คิดถึงอาสาสมัคร
TTITLE9=คอยรักจากเพชรบุรี
TTITLE10=เนื้อหอม
TTITLE11=พ่อเดือนแจ่ม
TTITLE12=คอยพี่เมื่อน้ำลง
TTITLE13=สำคัญที่ใจ
TTITLE14=ใช่แล้วพี่
TTITLE15=สงสารคนจน
TTITLE16=รอพี่ที่กัมพูชา
TTITLE17=เปลี่ยน พ.ศ.ใหม่ ใจยังไม่เปลี่ยน
EXTD=
EXTT0=
EXTT1=
EXTT2=
EXTT3=
EXTT4=
EXTT5=
EXTT6=
EXTT7=
EXTT8=
EXTT9=
EXTT10=
EXTT11=
EXTT12=
EXTT13=
EXTT14=
EXTT15=
EXTT16=
EXTT17=
PLAYORDER=
